<?xml version="1.0" standalone="no"?>
<svg xmlns:xlink="http://www.w3.org/1999/xlink" id="wave" style="transform:rotate(0deg); transition: 0.3s" viewBox="0 0 1440 490" version="1.1" xmlns="http://www.w3.org/2000/svg"><defs><linearGradient id="sw-gradient-0" x1="0" x2="0" y1="1" y2="0"><stop stop-color="rgba(53, 128, 219, 1)" offset="0%"/><stop stop-color="rgba(161.462, 195.687, 237.213, 1)" offset="100%"/></linearGradient></defs><path style="transform:translate(0, 0px); opacity:1" fill="url(#sw-gradient-0)" d="M0,392L60,359.3C120,327,240,261,360,261.3C480,261,600,327,720,294C840,261,960,131,1080,98C1200,65,1320,131,1440,171.5C1560,212,1680,229,1800,196C1920,163,2040,82,2160,49C2280,16,2400,33,2520,49C2640,65,2760,82,2880,106.2C3000,131,3120,163,3240,220.5C3360,278,3480,359,3600,383.8C3720,408,3840,376,3960,343C4080,310,4200,278,4320,253.2C4440,229,4560,212,4680,212.3C4800,212,4920,229,5040,269.5C5160,310,5280,376,5400,359.3C5520,343,5640,245,5760,212.3C5880,180,6000,212,6120,261.3C6240,310,6360,376,6480,351.2C6600,327,6720,212,6840,147C6960,82,7080,65,7200,65.3C7320,65,7440,82,7560,147C7680,212,7800,327,7920,375.7C8040,425,8160,408,8280,351.2C8400,294,8520,196,8580,147L8640,98L8640,490L8580,490C8520,490,8400,490,8280,490C8160,490,8040,490,7920,490C7800,490,7680,490,7560,490C7440,490,7320,490,7200,490C7080,490,6960,490,6840,490C6720,490,6600,490,6480,490C6360,490,6240,490,6120,490C6000,490,5880,490,5760,490C5640,490,5520,490,5400,490C5280,490,5160,490,5040,490C4920,490,4800,490,4680,490C4560,490,4440,490,4320,490C4200,490,4080,490,3960,490C3840,490,3720,490,3600,490C3480,490,3360,490,3240,490C3120,490,3000,490,2880,490C2760,490,2640,490,2520,490C2400,490,2280,490,2160,490C2040,490,1920,490,1800,490C1680,490,1560,490,1440,490C1320,490,1200,490,1080,490C960,490,840,490,720,490C600,490,480,490,360,490C240,490,120,490,60,490L0,490Z"/></svg>